<svg xmlns="http://www.w3.org/2000/svg" xmlns:xlink="http://www.w3.org/1999/xlink" version="1.1" width="256" height="256" viewBox="0 0 256 256" xml:space="preserve">

<defs>
</defs>
<g style="stroke: none; stroke-width: 0; stroke-dasharray: none; stroke-linecap: butt; stroke-linejoin: miter; stroke-miterlimit: 10; fill: none; fill-rule: nonzero; opacity: 1;" transform="translate(1.4065934065934016 1.4065934065934016) scale(2.81 2.81)" >
	<path d="M 88 47.934 H 2 c -1.104 0 -2 -0.895 -2 -2 c 0 -23.605 23.327 -34.356 45 -34.356 c 21.673 0 45 10.751 45 34.356 C 90 47.039 89.104 47.934 88 47.934 z M 4.067 43.934 h 81.867 C 84.619 24.469 64.104 15.578 45 15.578 S 5.381 24.469 4.067 43.934 z" style="stroke: none; stroke-width: 1; stroke-dasharray: none; stroke-linecap: butt; stroke-linejoin: miter; stroke-miterlimit: 10; fill: rgb(0,0,0); fill-rule: nonzero; opacity: 1;" transform=" matrix(1 0 0 1 0 0) " stroke-linecap="round" />
	<path d="M 88 55.753 H 2 c -1.104 0 -2 -0.896 -2 -2 s 0.896 -2 2 -2 h 86 c 1.104 0 2 0.896 2 2 S 89.104 55.753 88 55.753 z" style="stroke: none; stroke-width: 1; stroke-dasharray: none; stroke-linecap: butt; stroke-linejoin: miter; stroke-miterlimit: 10; fill: rgb(0,0,0); fill-rule: nonzero; opacity: 1;" transform=" matrix(1 0 0 1 0 0) " stroke-linecap="round" />
	<path d="M 73.524 78.046 H 16.475 C 7.391 78.046 0 70.655 0 61.57 c 0 -1.104 0.896 -2 2 -2 h 13.924 c 0.453 0 0.893 0.154 1.248 0.437 l 9.447 7.539 l 9.447 -7.539 c 0.354 -0.282 0.794 -0.437 1.248 -0.437 H 88 c 1.104 0 2 0.896 2 2 C 90 70.655 82.609 78.046 73.524 78.046 z M 4.16 63.57 c 0.96 5.932 6.117 10.476 12.315 10.476 h 57.049 c 6.198 0 11.355 -4.544 12.315 -10.476 H 38.013 l -10.147 8.098 c -0.729 0.582 -1.766 0.582 -2.495 0 L 15.224 63.57 H 4.16 z" style="stroke: none; stroke-width: 1; stroke-dasharray: none; stroke-linecap: butt; stroke-linejoin: miter; stroke-miterlimit: 10; fill: rgb(0,0,0); fill-rule: nonzero; opacity: 1;" transform=" matrix(1 0 0 1 0 0) " stroke-linecap="round" />
	<path d="M 45 38.361 c -1.104 0 -2 -0.896 -2 -2 v -1.609 c 0 -1.104 0.896 -2 2 -2 s 2 0.896 2 2 v 1.609 C 47 37.466 46.104 38.361 45 38.361 z" style="stroke: none; stroke-width: 1; stroke-dasharray: none; stroke-linecap: butt; stroke-linejoin: miter; stroke-miterlimit: 10; fill: rgb(0,0,0); fill-rule: nonzero; opacity: 1;" transform=" matrix(1 0 0 1 0 0) " stroke-linecap="round" />
	<path d="M 15.682 38.361 c -1.104 0 -2 -0.896 -2 -2 v -1.609 c 0 -1.104 0.896 -2 2 -2 s 2 0.896 2 2 v 1.609 C 17.682 37.466 16.786 38.361 15.682 38.361 z" style="stroke: none; stroke-width: 1; stroke-dasharray: none; stroke-linecap: butt; stroke-linejoin: miter; stroke-miterlimit: 10; fill: rgb(0,0,0); fill-rule: nonzero; opacity: 1;" transform=" matrix(1 0 0 1 0 0) " stroke-linecap="round" />
	<path d="M 74.318 38.361 c -1.104 0 -2 -0.896 -2 -2 v -1.609 c 0 -1.104 0.896 -2 2 -2 s 2 0.896 2 2 v 1.609 C 76.318 37.466 75.423 38.361 74.318 38.361 z" style="stroke: none; stroke-width: 1; stroke-dasharray: none; stroke-linecap: butt; stroke-linejoin: miter; stroke-miterlimit: 10; fill: rgb(0,0,0); fill-rule: nonzero; opacity: 1;" transform=" matrix(1 0 0 1 0 0) " stroke-linecap="round" />
	<path d="M 30.341 30.543 c -1.104 0 -2 -0.896 -2 -2 v -1.61 c 0 -1.104 0.896 -2 2 -2 s 2 0.896 2 2 v 1.61 C 32.341 29.648 31.445 30.543 30.341 30.543 z" style="stroke: none; stroke-width: 1; stroke-dasharray: none; stroke-linecap: butt; stroke-linejoin: miter; stroke-miterlimit: 10; fill: rgb(0,0,0); fill-rule: nonzero; opacity: 1;" transform=" matrix(1 0 0 1 0 0) " stroke-linecap="round" />
	<path d="M 59.659 30.543 c -1.104 0 -2 -0.896 -2 -2 v -1.61 c 0 -1.104 0.896 -2 2 -2 s 2 0.896 2 2 v 1.61 C 61.659 29.648 60.764 30.543 59.659 30.543 z" style="stroke: none; stroke-width: 1; stroke-dasharray: none; stroke-linecap: butt; stroke-linejoin: miter; stroke-miterlimit: 10; fill: rgb(0,0,0); fill-rule: nonzero; opacity: 1;" transform=" matrix(1 0 0 1 0 0) " stroke-linecap="round" />
</g>
</svg>