<svg xmlns="http://www.w3.org/2000/svg" xmlns:xlink="http://www.w3.org/1999/xlink" version="1.1" width="256" height="256" viewBox="0 0 256 256" xml:space="preserve">

<defs>
</defs>
<g style="stroke: none; stroke-width: 0; stroke-dasharray: none; stroke-linecap: butt; stroke-linejoin: miter; stroke-miterlimit: 10; fill: none; fill-rule: nonzero; opacity: 1;" transform="translate(1.4065934065934016 1.4065934065934016) scale(2.81 2.81)" >
	<path d="M 80.235 84.138 H 9.765 C 4.38 84.138 0 79.757 0 74.373 v -43.7 c 0 -5.384 4.38 -9.765 9.765 -9.765 h 39.33 c 1.104 0 2 0.896 2 2 s -0.896 2 -2 2 H 9.765 C 6.586 24.909 4 27.495 4 30.673 v 43.7 c 0 3.179 2.586 5.765 5.765 5.765 h 70.471 c 3.179 0 5.765 -2.586 5.765 -5.765 V 42.724 c 0 -1.104 0.896 -2 2 -2 s 2 0.896 2 2 v 31.649 C 90 79.757 85.619 84.138 80.235 84.138 z" style="stroke: none; stroke-width: 1; stroke-dasharray: none; stroke-linecap: butt; stroke-linejoin: miter; stroke-miterlimit: 10; fill: rgb(0,0,0); fill-rule: nonzero; opacity: 1;" transform=" matrix(1 0 0 1 0 0) " stroke-linecap="round" />
	<path d="M 44.802 61.858 c -1.742 0 -3.487 -0.625 -4.879 -1.884 L 11.16 33.961 c -0.819 -0.741 -0.883 -2.006 -0.142 -2.825 c 0.741 -0.82 2.006 -0.883 2.825 -0.142 l 28.763 26.014 c 1.301 1.176 3.287 1.121 4.521 -0.122 l 13.339 -13.449 c 0.776 -0.786 2.044 -0.79 2.828 -0.012 c 0.784 0.778 0.79 2.044 0.012 2.828 L 49.967 59.702 C 48.546 61.136 46.676 61.858 44.802 61.858 z" style="stroke: none; stroke-width: 1; stroke-dasharray: none; stroke-linecap: butt; stroke-linejoin: miter; stroke-miterlimit: 10; fill: rgb(0,0,0); fill-rule: nonzero; opacity: 1;" transform=" matrix(1 0 0 1 0 0) " stroke-linecap="round" />
	<path d="M 72.954 39.955 c -9.399 0 -17.046 -7.647 -17.046 -17.046 S 63.555 5.863 72.954 5.863 S 90 13.51 90 22.909 S 82.354 39.955 72.954 39.955 z M 72.954 9.863 c -7.193 0 -13.046 5.853 -13.046 13.046 s 5.853 13.046 13.046 13.046 S 86 30.102 86 22.909 S 80.147 9.863 72.954 9.863 z" style="stroke: none; stroke-width: 1; stroke-dasharray: none; stroke-linecap: butt; stroke-linejoin: miter; stroke-miterlimit: 10; fill: rgb(0,0,0); fill-rule: nonzero; opacity: 1;" transform=" matrix(1 0 0 1 0 0) " stroke-linecap="round" />
	<path d="M 76.56 27.198 h -1.521 V 16.619 c 0 -0.792 -0.467 -1.509 -1.19 -1.829 c -0.727 -0.32 -1.568 -0.184 -2.155 0.349 l -3.69 3.354 c -0.817 0.743 -0.877 2.008 -0.134 2.825 c 0.742 0.817 2.007 0.877 2.825 0.135 l 0.345 -0.314 v 6.059 h -1.69 c -1.104 0 -2 0.896 -2 2 s 0.896 2 2 2 h 7.212 c 1.104 0 2 -0.896 2 -2 S 77.664 27.198 76.56 27.198 z" style="stroke: none; stroke-width: 1; stroke-dasharray: none; stroke-linecap: butt; stroke-linejoin: miter; stroke-miterlimit: 10; fill: rgb(0,0,0); fill-rule: nonzero; opacity: 1;" transform=" matrix(1 0 0 1 0 0) " stroke-linecap="round" />
	<path d="M 12.26 75.692 c -0.51 0 -1.021 -0.194 -1.411 -0.582 c -0.783 -0.779 -0.786 -2.046 -0.006 -2.829 l 13.774 -13.839 c 0.779 -0.783 2.045 -0.784 2.829 -0.007 c 0.783 0.779 0.786 2.046 0.006 2.829 L 13.678 75.104 C 13.287 75.496 12.773 75.692 12.26 75.692 z" style="stroke: none; stroke-width: 1; stroke-dasharray: none; stroke-linecap: butt; stroke-linejoin: miter; stroke-miterlimit: 10; fill: rgb(0,0,0); fill-rule: nonzero; opacity: 1;" transform=" matrix(1 0 0 1 0 0) " stroke-linecap="round" />
	<path d="M 77.74 75.692 c -0.514 0 -1.026 -0.196 -1.417 -0.589 L 62.548 61.265 c -0.779 -0.783 -0.776 -2.05 0.006 -2.828 c 0.784 -0.778 2.05 -0.776 2.828 0.006 l 13.775 13.839 c 0.779 0.783 0.776 2.05 -0.006 2.828 C 78.761 75.498 78.251 75.692 77.74 75.692 z" style="stroke: none; stroke-width: 1; stroke-dasharray: none; stroke-linecap: butt; stroke-linejoin: miter; stroke-miterlimit: 10; fill: rgb(0,0,0); fill-rule: nonzero; opacity: 1;" transform=" matrix(1 0 0 1 0 0) " stroke-linecap="round" />
</g>
</svg>